# xmcd
#
# Track frame offsets: 
#        207
#        10007
#        12565
#        30487
#        33035
#        46205
#        48800
#        63137
#        65575
#        78917
#        81387
#        88190
#        90842
#        104527
#        117252
#        119897
#        130942
#        133510
#        142065
#        144582
#        160620
#        163165
#        170082
#        172592
#        186925
#        189345
#        206045
#        208520
#        225180
#        227840
#        244127
#        246870
#        262565
#        265175
#        280810
#        283312
#        297162
#        299755
#        316752
#        319480
#
# Disc length: 4462 seconds
#
# Revision: 0
# Processed by: cddbd v1.5.2PL0 Copyright (c) Steve Scherf et al.
# Submitted via: ExactAudioCopy v1.0b3
#
DISCID=3d116c28
DTITLE=Wolfgang Bock - Pictures In Motion
DYEAR=1990
DGENRE=Electronic
TTITLE0=Skagerrak
TTITLE1=Skagerrak (Thirty Second Version)
TTITLE2=Plejades
TTITLE3=Plejades (Thirty Second Version)
TTITLE4=Soho
TTITLE5=Soho (Thirty Second Version)
TTITLE6=Biscaya Sunset
TTITLE7=Biscaya Sunset (Thirty Second Version)
TTITLE8=Barock
TTITLE9=Barock (Thirty Second Version)
TTITLE10=Aerobatics
TTITLE11=Aerobatics (Thirty Second Version)
TTITLE12=Franky's
TTITLE13=Tahitian Dream
TTITLE14=Tahitian Dream (Thirty Second Version)
TTITLE15=Boulevard
TTITLE16=Boulevard (Thirty Second Version)
TTITLE17=Pitcairn
TTITLE18=Pitcairn (Thirty Second Version)
TTITLE19=Skydiver
TTITLE20=Skydiver (Thirty Second Version)
TTITLE21=Hot Cat
TTITLE22=Hot Cat (Thirty Second Version)
TTITLE23=Verona
TTITLE24=Verona (Thirty Second Version)
TTITLE25=Titan
TTITLE26=Titan (Thirty Second Version)
TTITLE27=Circum
TTITLE28=Circum (Thirty Second Version)
TTITLE29=Moana
TTITLE30=Moana (Thirty Second Version)
TTITLE31=Clouds
TTITLE32=Clouds (Thirty Second Version)
TTITLE33=Logic
TTITLE34=Logic (Thirty Second Version)
TTITLE35=Pictures In Motion
TTITLE36=Pictures In Motion (Thirty Second Version)
TTITLE37=Joshua
TTITLE38=Joshua (Thirty Second Version)
TTITLE39=Final Conclusion
EXTD=
EXTT0=
EXTT1=
EXTT2=
EXTT3=
EXTT4=
EXTT5=
EXTT6=
EXTT7=
EXTT8=
EXTT9=
EXTT10=
EXTT11=
EXTT12=
EXTT13=
EXTT14=
EXTT15=
EXTT16=
EXTT17=
EXTT18=
EXTT19=
EXTT20=
EXTT21=
EXTT22=
EXTT23=
EXTT24=
EXTT25=
EXTT26=
EXTT27=
EXTT28=
EXTT29=
EXTT30=
EXTT31=
EXTT32=
EXTT33=
EXTT34=
EXTT35=
EXTT36=
EXTT37=
EXTT38=
EXTT39=
PLAYORDER=
